<?xml version="1.0" encoding="UTF-8" standalone="no"?>
<!DOCTYPE svg PUBLIC "-//W3C//DTD SVG 1.1//EN"
 "http://www.w3.org/Graphics/SVG/1.1/DTD/svg11.dtd">
<!-- Generated by graphviz version 12.2.1 (20241206.2353)
 -->
<!-- Title: pastafarianism Pages: 1 -->
<svg width="2208pt" height="116pt"
 viewBox="0.00 0.00 2207.78 116.00" xmlns="http://www.w3.org/2000/svg" xmlns:xlink="http://www.w3.org/1999/xlink">
<g id="graph0" class="graph" transform="scale(1 1) rotate(0) translate(4 112)">
<title>pastafarianism</title>
<polygon fill="white" stroke="none" points="-4,4 -4,-112 2203.78,-112 2203.78,4 -4,4"/>
<!-- PouringSequence -->
<g id="node1" class="node">
<title>PouringSequence</title>
<polygon fill="orange" stroke="black" points="1085.93,-108 996.43,-108 996.43,-72 1085.93,-72 1085.93,-108"/>
<text text-anchor="middle" x="1041.18" y="-86.7" font-family="Times,serif" font-size="9.00">Ⓜ PouringSequence</text>
</g>
<!-- Open Gripper -->
<g id="node2" class="node">
<title>Open Gripper</title>
<ellipse fill="gray" stroke="black" cx="38.18" cy="-18" rx="38.18" ry="18"/>
<text text-anchor="middle" x="38.18" y="-14.7" font-family="Times,serif" font-size="9.00">Open Gripper</text>
</g>
<!-- PouringSequence&#45;&gt;Open Gripper -->
<g id="edge1" class="edge">
<title>PouringSequence&#45;&gt;Open Gripper</title>
<path fill="none" stroke="black" d="M995.97,-88.24C831.13,-85.18 262.71,-72.21 85.18,-36 82.52,-35.46 79.82,-34.8 77.11,-34.05"/>
<polygon fill="black" stroke="black" points="78.16,-30.71 67.57,-31.07 76.07,-37.39 78.16,-30.71"/>
</g>
<!-- Open Gripper* -->
<g id="node3" class="node">
<title>Open Gripper*</title>
<ellipse fill="gray" stroke="black" cx="135.18" cy="-18" rx="40.8" ry="18"/>
<text text-anchor="middle" x="135.18" y="-14.7" font-family="Times,serif" font-size="9.00">Open Gripper*</text>
</g>
<!-- PouringSequence&#45;&gt;Open Gripper* -->
<g id="edge2" class="edge">
<title>PouringSequence&#45;&gt;Open Gripper*</title>
<path fill="none" stroke="black" d="M996.04,-87.79C842.72,-83.42 342.76,-67.09 185.18,-36 182.2,-35.41 179.16,-34.69 176.12,-33.89"/>
<polygon fill="black" stroke="black" points="177.27,-30.58 166.68,-31.09 175.27,-37.29 177.27,-30.58"/>
</g>
<!-- Set Normal Speed -->
<g id="node4" class="node">
<title>Set Normal Speed</title>
<ellipse fill="gray" stroke="black" cx="241.18" cy="-18" rx="46.92" ry="18"/>
<text text-anchor="middle" x="241.18" y="-14.7" font-family="Times,serif" font-size="9.00">Set Normal Speed</text>
</g>
<!-- PouringSequence&#45;&gt;Set Normal Speed -->
<g id="edge3" class="edge">
<title>PouringSequence&#45;&gt;Set Normal Speed</title>
<path fill="none" stroke="black" d="M996.29,-89.28C879.83,-89.25 558.85,-84.41 297.18,-36 293.63,-35.34 289.99,-34.54 286.35,-33.65"/>
<polygon fill="black" stroke="black" points="287.56,-30.35 276.99,-31.14 285.74,-37.11 287.56,-30.35"/>
</g>
<!-- Move to Home -->
<g id="node5" class="node">
<title>Move to Home</title>
<ellipse fill="gray" stroke="black" cx="347.18" cy="-18" rx="40.8" ry="18"/>
<text text-anchor="middle" x="347.18" y="-14.7" font-family="Times,serif" font-size="9.00">Move to Home</text>
</g>
<!-- PouringSequence&#45;&gt;Move to Home -->
<g id="edge4" class="edge">
<title>PouringSequence&#45;&gt;Move to Home</title>
<path fill="none" stroke="black" d="M996.04,-89.17C890.1,-88.74 617.7,-82.74 396.18,-36 393.4,-35.41 390.57,-34.72 387.73,-33.94"/>
<polygon fill="black" stroke="black" points="388.93,-30.65 378.35,-31.09 386.9,-37.34 388.93,-30.65"/>
</g>
<!-- Move In Front of Cup -->
<g id="node6" class="node">
<title>Move In Front of Cup</title>
<ellipse fill="gray" stroke="black" cx="461.18" cy="-18" rx="55.66" ry="18"/>
<text text-anchor="middle" x="461.18" y="-14.7" font-family="Times,serif" font-size="9.00">Move In Front of Cup</text>
</g>
<!-- PouringSequence&#45;&gt;Move In Front of Cup -->
<g id="edge5" class="edge">
<title>PouringSequence&#45;&gt;Move In Front of Cup</title>
<path fill="none" stroke="black" d="M995.98,-86.75C905.82,-81.74 697.47,-67.53 525.18,-36 521.09,-35.25 516.88,-34.38 512.67,-33.43"/>
<polygon fill="black" stroke="black" points="513.6,-30.05 503.06,-31.12 511.96,-36.86 513.6,-30.05"/>
</g>
<!-- Move Around Cup -->
<g id="node7" class="node">
<title>Move Around Cup</title>
<ellipse fill="gray" stroke="black" cx="583.18" cy="-18" rx="48.67" ry="18"/>
<text text-anchor="middle" x="583.18" y="-14.7" font-family="Times,serif" font-size="9.00">Move Around Cup</text>
</g>
<!-- PouringSequence&#45;&gt;Move Around Cup -->
<g id="edge6" class="edge">
<title>PouringSequence&#45;&gt;Move Around Cup</title>
<path fill="none" stroke="black" d="M995.98,-85.38C921.3,-78.87 767.73,-63.27 640.18,-36 636.8,-35.28 633.34,-34.46 629.86,-33.57"/>
<polygon fill="black" stroke="black" points="630.86,-30.21 620.29,-30.97 629.03,-36.97 630.86,-30.21"/>
</g>
<!-- Close Gripper -->
<g id="node8" class="node">
<title>Close Gripper</title>
<ellipse fill="gray" stroke="black" cx="688.18" cy="-18" rx="38.61" ry="18"/>
<text text-anchor="middle" x="688.18" y="-14.7" font-family="Times,serif" font-size="9.00">Close Gripper</text>
</g>
<!-- PouringSequence&#45;&gt;Close Gripper -->
<g id="edge7" class="edge">
<title>PouringSequence&#45;&gt;Close Gripper</title>
<path fill="none" stroke="black" d="M996.05,-83.71C935.88,-76.08 826.38,-60.19 735.18,-36 732.76,-35.36 730.29,-34.65 727.81,-33.89"/>
<polygon fill="black" stroke="black" points="729.04,-30.61 718.44,-30.8 726.85,-37.25 729.04,-30.61"/>
</g>
<!-- Move to Ready Pour -->
<g id="node9" class="node">
<title>Move to Ready Pour</title>
<ellipse fill="gray" stroke="black" cx="797.18" cy="-18" rx="52.6" ry="18"/>
<text text-anchor="middle" x="797.18" y="-14.7" font-family="Times,serif" font-size="9.00">Move to Ready Pour</text>
</g>
<!-- PouringSequence&#45;&gt;Move to Ready Pour -->
<g id="edge8" class="edge">
<title>PouringSequence&#45;&gt;Move to Ready Pour</title>
<path fill="none" stroke="black" d="M996.14,-76.08C954.08,-64.01 891.4,-46.03 847.67,-33.49"/>
<polygon fill="black" stroke="black" points="848.74,-30.15 838.16,-30.76 846.81,-36.88 848.74,-30.15"/>
</g>
<!-- Set Slow Speed -->
<g id="node10" class="node">
<title>Set Slow Speed</title>
<ellipse fill="gray" stroke="black" cx="910.18" cy="-18" rx="42.11" ry="18"/>
<text text-anchor="middle" x="910.18" y="-14.7" font-family="Times,serif" font-size="9.00">Set Slow Speed</text>
</g>
<!-- PouringSequence&#45;&gt;Set Slow Speed -->
<g id="edge9" class="edge">
<title>PouringSequence&#45;&gt;Set Slow Speed</title>
<path fill="none" stroke="black" d="M1008.46,-71.52C989.31,-61.29 965.14,-48.37 945.55,-37.9"/>
<polygon fill="black" stroke="black" points="947.3,-34.87 936.83,-33.24 944,-41.04 947.3,-34.87"/>
</g>
<!-- Pour -->
<g id="node11" class="node">
<title>Pour</title>
<ellipse fill="gray" stroke="black" cx="997.18" cy="-18" rx="27" ry="18"/>
<text text-anchor="middle" x="997.18" y="-14.7" font-family="Times,serif" font-size="9.00">Pour</text>
</g>
<!-- PouringSequence&#45;&gt;Pour -->
<g id="edge10" class="edge">
<title>PouringSequence&#45;&gt;Pour</title>
<path fill="none" stroke="black" d="M1030.3,-71.7C1025.2,-63.58 1019.01,-53.74 1013.37,-44.76"/>
<polygon fill="black" stroke="black" points="1016.42,-43.03 1008.13,-36.43 1010.49,-46.75 1016.42,-43.03"/>
</g>
<!-- Wait for Pouring -->
<g id="node12" class="node">
<title>Wait for Pouring</title>
<ellipse fill="gray" stroke="black" cx="1086.18" cy="-18" rx="44.3" ry="18"/>
<text text-anchor="middle" x="1086.18" y="-14.7" font-family="Times,serif" font-size="9.00">Wait for Pouring</text>
</g>
<!-- PouringSequence&#45;&gt;Wait for Pouring -->
<g id="edge11" class="edge">
<title>PouringSequence&#45;&gt;Wait for Pouring</title>
<path fill="none" stroke="black" d="M1052.3,-71.7C1057.44,-63.7 1063.66,-54.02 1069.36,-45.15"/>
<polygon fill="black" stroke="black" points="1072.21,-47.2 1074.67,-36.9 1066.32,-43.41 1072.21,-47.2"/>
</g>
<!-- Set Normal Speed* -->
<g id="node13" class="node">
<title>Set Normal Speed*</title>
<ellipse fill="gray" stroke="black" cx="1198.18" cy="-18" rx="49.54" ry="18"/>
<text text-anchor="middle" x="1198.18" y="-14.7" font-family="Times,serif" font-size="9.00">Set Normal Speed*</text>
</g>
<!-- PouringSequence&#45;&gt;Set Normal Speed* -->
<g id="edge12" class="edge">
<title>PouringSequence&#45;&gt;Set Normal Speed*</title>
<path fill="none" stroke="black" d="M1080.39,-71.52C1103.86,-61.05 1133.64,-47.77 1157.39,-37.18"/>
<polygon fill="black" stroke="black" points="1158.74,-40.41 1166.45,-33.15 1155.89,-34.02 1158.74,-40.41"/>
</g>
<!-- Move to Ready Position -->
<g id="node14" class="node">
<title>Move to Ready Position</title>
<ellipse fill="gray" stroke="black" cx="1325.18" cy="-18" rx="59.6" ry="18"/>
<text text-anchor="middle" x="1325.18" y="-14.7" font-family="Times,serif" font-size="9.00">Move to Ready Position</text>
</g>
<!-- PouringSequence&#45;&gt;Move to Ready Position -->
<g id="edge13" class="edge">
<title>PouringSequence&#45;&gt;Move to Ready Position</title>
<path fill="none" stroke="black" d="M1086.28,-77.99C1129.99,-67.31 1198.15,-50.62 1257.18,-36 1261.19,-35.01 1265.34,-33.97 1269.52,-32.94"/>
<polygon fill="black" stroke="black" points="1270.23,-36.36 1279.09,-30.55 1268.54,-29.57 1270.23,-36.36"/>
</g>
<!-- Move Around Cup* -->
<g id="node15" class="node">
<title>Move Around Cup*</title>
<ellipse fill="gray" stroke="black" cx="1454.18" cy="-18" rx="51.29" ry="18"/>
<text text-anchor="middle" x="1454.18" y="-14.7" font-family="Times,serif" font-size="9.00">Move Around Cup*</text>
</g>
<!-- PouringSequence&#45;&gt;Move Around Cup* -->
<g id="edge14" class="edge">
<title>PouringSequence&#45;&gt;Move Around Cup*</title>
<path fill="none" stroke="black" d="M1086.37,-84.08C1153.83,-76.31 1284.68,-59.63 1394.18,-36 1397.77,-35.22 1401.48,-34.35 1405.19,-33.43"/>
<polygon fill="black" stroke="black" points="1406.02,-36.83 1414.81,-30.91 1404.25,-30.06 1406.02,-36.83"/>
</g>
<!-- Open Gripper** -->
<g id="node16" class="node">
<title>Open Gripper**</title>
<ellipse fill="gray" stroke="black" cx="1567.18" cy="-18" rx="43.42" ry="18"/>
<text text-anchor="middle" x="1567.18" y="-14.7" font-family="Times,serif" font-size="9.00">Open Gripper**</text>
</g>
<!-- PouringSequence&#45;&gt;Open Gripper** -->
<g id="edge15" class="edge">
<title>PouringSequence&#45;&gt;Open Gripper**</title>
<path fill="none" stroke="black" d="M1086.33,-86.93C1171.04,-82.39 1359.24,-69.18 1514.18,-36 1517.37,-35.32 1520.63,-34.52 1523.91,-33.65"/>
<polygon fill="black" stroke="black" points="1524.85,-37.02 1533.48,-30.88 1522.91,-30.29 1524.85,-37.02"/>
</g>
<!-- Move In Front of Cup* -->
<g id="node17" class="node">
<title>Move In Front of Cup*</title>
<ellipse fill="gray" stroke="black" cx="1687.18" cy="-18" rx="58.28" ry="18"/>
<text text-anchor="middle" x="1687.18" y="-14.7" font-family="Times,serif" font-size="9.00">Move In Front of Cup*</text>
</g>
<!-- PouringSequence&#45;&gt;Move In Front of Cup* -->
<g id="edge16" class="edge">
<title>PouringSequence&#45;&gt;Move In Front of Cup*</title>
<path fill="none" stroke="black" d="M1086.08,-87.23C1183.68,-82.87 1422.22,-69.45 1619.18,-36 1623.83,-35.21 1628.64,-34.27 1633.45,-33.24"/>
<polygon fill="black" stroke="black" points="1634.13,-36.67 1643.11,-31.05 1632.58,-29.85 1634.13,-36.67"/>
</g>
<!-- Move to Home* -->
<g id="node18" class="node">
<title>Move to Home*</title>
<ellipse fill="gray" stroke="black" cx="1807.18" cy="-18" rx="43.42" ry="18"/>
<text text-anchor="middle" x="1807.18" y="-14.7" font-family="Times,serif" font-size="9.00">Move to Home*</text>
</g>
<!-- PouringSequence&#45;&gt;Move to Home* -->
<g id="edge17" class="edge">
<title>PouringSequence&#45;&gt;Move to Home*</title>
<path fill="none" stroke="black" d="M1086.3,-89.32C1199.69,-89.33 1505.32,-84.45 1754.18,-36 1757.53,-35.35 1760.97,-34.55 1764.4,-33.66"/>
<polygon fill="black" stroke="black" points="1765.14,-37.09 1773.81,-30.99 1763.23,-30.36 1765.14,-37.09"/>
</g>
<!-- Move Around Cup** -->
<g id="node19" class="node">
<title>Move Around Cup**</title>
<ellipse fill="gray" stroke="black" cx="1922.18" cy="-18" rx="53.91" ry="18"/>
<text text-anchor="middle" x="1922.18" y="-14.7" font-family="Times,serif" font-size="9.00">Move Around Cup**</text>
</g>
<!-- PouringSequence&#45;&gt;Move Around Cup** -->
<g id="edge18" class="edge">
<title>PouringSequence&#45;&gt;Move Around Cup**</title>
<path fill="none" stroke="black" d="M1086.31,-89.21C1210.52,-89.11 1567.5,-84.31 1859.18,-36 1863.46,-35.29 1867.86,-34.41 1872.27,-33.44"/>
<polygon fill="black" stroke="black" points="1872.74,-36.92 1881.65,-31.18 1871.11,-30.11 1872.74,-36.92"/>
</g>
<!-- Close Gripper* -->
<g id="node20" class="node">
<title>Close Gripper*</title>
<ellipse fill="gray" stroke="black" cx="2035.18" cy="-18" rx="41.24" ry="18"/>
<text text-anchor="middle" x="2035.18" y="-14.7" font-family="Times,serif" font-size="9.00">Close Gripper*</text>
</g>
<!-- PouringSequence&#45;&gt;Close Gripper* -->
<g id="edge19" class="edge">
<title>PouringSequence&#45;&gt;Close Gripper*</title>
<path fill="none" stroke="black" d="M1086.35,-88.09C1249.77,-84.53 1809.74,-70.09 1985.18,-36 1988.15,-35.42 1991.2,-34.71 1994.24,-33.91"/>
<polygon fill="black" stroke="black" points="1995.08,-37.31 2003.68,-31.11 1993.09,-30.59 1995.08,-37.31"/>
</g>
<!-- Ready for Next Pour -->
<g id="node21" class="node">
<title>Ready for Next Pour</title>
<ellipse fill="gray" stroke="black" cx="2147.18" cy="-18" rx="52.6" ry="18"/>
<text text-anchor="middle" x="2147.18" y="-14.7" font-family="Times,serif" font-size="9.00">Ready for Next Pour</text>
</g>
<!-- PouringSequence&#45;&gt;Ready for Next Pour -->
<g id="edge20" class="edge">
<title>PouringSequence&#45;&gt;Ready for Next Pour</title>
<path fill="none" stroke="black" d="M1086.2,-88.01C1260.15,-84 1888.29,-67.61 2085.18,-36 2089.46,-35.31 2093.86,-34.44 2098.26,-33.46"/>
<polygon fill="black" stroke="black" points="2098.73,-36.95 2107.63,-31.19 2097.08,-30.15 2098.73,-36.95"/>
</g>
</g>
</svg>
